<?xml version="1.0" standalone="no"?>
<!DOCTYPE svg PUBLIC "-//W3C//DTD SVG 20010904//EN"
 "http://www.w3.org/TR/2001/REC-SVG-20010904/DTD/svg10.dtd">
<svg version="1.0" xmlns="http://www.w3.org/2000/svg"
 width="521.000000pt" height="521.000000pt" viewBox="0 0 521.000000 521.000000"
 preserveAspectRatio="xMidYMid meet">
<metadata>
Created by potrace 1.11, written by Peter Selinger 2001-2013
</metadata>
<g transform="translate(0.000000,521.000000) scale(0.100000,-0.100000)"
fill="#000000" stroke="none">
<path d="M2615 5180 c3 -5 0 -8 -7 -5 -8 3 -30 -24 -58 -71 -25 -42 -52 -88
-61 -102 -9 -15 -157 -259 -329 -542 -172 -283 -320 -527 -329 -542 -9 -14
-45 -74 -81 -133 -36 -58 -104 -170 -151 -248 -47 -78 -150 -248 -229 -377
-197 -324 -333 -547 -345 -568 -5 -9 -21 -34 -34 -55 -28 -46 -26 -49 69 -100
36 -19 126 -69 200 -112 74 -43 160 -91 190 -108 30 -16 60 -33 65 -37 6 -4
37 -22 70 -40 33 -18 157 -88 275 -155 118 -68 232 -132 253 -144 21 -12 71
-40 110 -62 40 -23 97 -55 127 -72 30 -16 64 -35 75 -42 58 -36 174 -95 187
-95 7 0 117 61 243 136 473 281 594 353 765 454 96 57 225 133 285 169 61 36
122 73 136 81 133 76 199 116 199 122 0 6 -189 321 -245 408 -12 19 -85 139
-162 265 -77 127 -221 363 -320 525 -99 162 -251 412 -338 555 -87 143 -188
307 -223 365 -36 58 -72 119 -82 135 -9 17 -55 91 -100 165 -46 74 -97 159
-114 188 -16 28 -34 52 -39 52 -4 0 -5 -4 -2 -10z m-1 -194 l1 -125 -57 32
c-32 17 -58 36 -58 42 0 5 17 37 38 70 20 33 43 72 51 87 8 16 17 26 19 23 3
-3 6 -61 6 -129z m0 -405 c1 -148 -3 -231 -9 -230 -22 1 -330 208 -327 220 2
7 46 83 99 169 l97 157 70 -42 70 -43 0 -231z m-282 -107 c40 -26 109 -70 153
-99 44 -28 91 -58 105 -67 l25 -15 -2 -239 c0 -131 -2 -240 -2 -241 -1 -3 -90
53 -242 153 -57 38 -108 71 -114 73 -5 2 -14 8 -20 13 -5 5 -52 36 -103 68
-106 69 -104 49 -20 183 26 43 48 82 48 87 0 5 4 10 8 12 5 2 23 29 41 61 18
31 36 57 41 57 5 0 42 -21 82 -46z m-260 -363 c24 -15 104 -68 178 -116 74
-48 182 -119 240 -156 58 -38 109 -70 114 -72 10 -3 15 -473 6 -486 -3 -4 -95
50 -205 120 -110 70 -287 183 -394 251 -107 68 -199 126 -204 129 -8 6 8 46
24 59 3 3 8 10 10 15 11 28 173 285 180 285 4 0 27 -13 51 -29z m-195 -423
c54 -34 134 -84 177 -112 108 -69 266 -169 415 -263 68 -43 128 -81 134 -85
11 -6 17 -495 7 -523 -4 -12 -17 -7 -57 20 -29 19 -57 35 -63 35 -5 0 -10 4
-10 9 0 5 -6 11 -13 13 -6 2 -90 53 -184 113 -95 61 -190 121 -213 135 -22 14
-96 61 -166 105 -172 110 -162 103 -268 170 l-95 59 21 36 c36 58 82 135 95
156 7 10 36 58 65 107 29 48 54 87 55 87 2 0 47 -28 100 -62z m-219 -445 c31
-20 86 -55 122 -78 124 -79 521 -330 538 -340 9 -5 31 -19 47 -30 17 -12 76
-50 133 -85 57 -35 106 -68 109 -74 4 -6 7 -122 7 -258 1 -280 7 -266 -79
-209 -34 23 -601 365 -683 412 -15 9 -93 56 -172 104 -80 48 -158 96 -175 105
-43 25 -219 132 -224 136 -2 2 11 27 29 56 18 29 40 67 50 83 9 17 49 83 89
147 l72 117 40 -25 c22 -13 65 -41 97 -61z m-55 -558 c188 -113 349 -210 357
-215 8 -5 158 -95 333 -200 174 -105 317 -196 318 -203 5 -59 2 -450 -3 -453
-4 -2 -41 16 -83 41 -42 25 -79 45 -81 45 -2 0 -21 11 -42 23 -20 13 -64 39
-97 57 -63 34 -462 261 -948 536 -158 90 -291 164 -296 164 -17 0 -41 36 -30
47 5 5 17 23 27 40 54 96 194 323 198 323 3 0 159 -92 347 -205z"/>
<path d="M1070 2211 c0 -5 3 -11 8 -13 4 -1 16 -16 28 -33 11 -16 42 -61 69
-100 27 -38 74 -106 104 -150 31 -44 59 -84 64 -90 4 -5 39 -55 77 -110 38
-55 74 -107 80 -115 6 -8 73 -105 150 -215 77 -110 144 -207 150 -215 6 -8
183 -262 394 -565 211 -302 392 -561 403 -574 l19 -24 122 174 c67 96 126 181
132 189 68 97 203 292 220 315 12 17 53 75 91 130 38 55 75 108 81 118 7 10
70 100 140 200 70 100 133 190 140 199 7 10 101 144 208 298 107 155 243 349
302 433 58 84 105 153 103 155 -3 4 -25 -9 -495 -300 -195 -121 -374 -233
-397 -249 -23 -16 -44 -29 -47 -29 -3 0 -32 -17 -63 -37 -32 -21 -66 -42 -76
-48 -9 -5 -115 -71 -235 -145 -119 -74 -224 -134 -232 -133 -8 1 -96 52 -195
114 -461 288 -1336 829 -1340 829 -3 0 -5 -4 -5 -9z"/>
</g>
</svg>
