<?xml version="1.0" encoding="utf-8"?>
<!-- Generator: Adobe Illustrator 23.0.2, SVG Export Plug-In . SVG Version: 6.00 Build 0)  -->
<svg version="1.1" id="Layer_1" xmlns="http://www.w3.org/2000/svg" xmlns:xlink="http://www.w3.org/1999/xlink" x="0px" y="0px"
	 viewBox="164.10000610351562 190.39999389648438 1169.8001708984375 349.6999816894531" style="enable-background:new 0 0 1500 750;" xml:space="preserve">
<g>
	<path d="M1309.8,253h-7v16.8h-4.1V253h-7v-3.8h18.1V253z"/>
	<path d="M1333.9,269.8h-4.1v-11.5l-5.4,8.5h-2.5v0l-5.4-8.6l0.1,11.6h-4.1v-20.6h2.9l7.8,12.5l7.8-12.5h2.9V269.8z"/>
	<path d="M456.6,249.7v180.1h-36.8V249.7H456.6z"/>
	<path d="M606.5,308.4v121.8c0,37.8-29.4,61-65.4,61c-34.8,0-60.6-21.6-63.2-52l36.6,0.2c1.5,12.9,12.9,18.5,27.8,18.5
		c14.2,0,27.4-7.6,27.4-27.4v-15.5c-9.4,6.1-21.3,9.6-34.8,9.6c-33.5,0-60.4-27.1-60.4-58.4c0-36.3,26.9-60.6,60.4-60.6
		c13.4,0,25.4,3.6,34.8,9.6v-6.6L606.5,308.4z M569.7,380.1v-29.7c-7.5-10.9-17.8-14.5-28.2-14.5c-18.1,0-30.6,12.1-30.6,30.4
		c0,13.5,12.5,28.2,30.6,28.2C551.9,394.6,562.2,390.9,569.7,380.1z"/>
	<path d="M752.9,367.6c0,37.5-27.7,64.2-65,64.2c-37.5,0-65.2-26.7-65.2-64.2c0-37.2,27.7-64.5,65.2-64.5
		C725.2,303.2,752.9,330.4,752.9,367.6z M717.4,367.6c0-17.7-11.6-31.9-29.5-31.9c-18.1,0-29.8,14.3-29.8,31.9
		c0,18.1,11.6,31.7,29.8,31.7C705.8,399.3,717.4,385.8,717.4,367.6z"/>
	<path d="M983.9,308.6v121l-36.1,0.2V423c-9.4,6.1-21.3,9.9-34.8,9.9c-33.5,0-60.4-28.4-60.4-63.4c0-35.3,26.9-63.7,60.4-63.7
		c13.4,0,25.4,3.8,34.8,9.9v-6.8L983.9,308.6z M947.9,387.9v-37.1c-7.6-10.8-18.2-13.8-28.7-13.8c-18.4,0-31.2,14.7-31.2,32.4
		c0,17.4,12.8,32.2,31.2,32.2C929.7,401.6,940.3,398.7,947.9,387.9z"/>
	<path d="M1132,364.1v65.7h-35.4v-61.5c0-19.8-9.9-30.2-27.4-30.2c-9.1,0-19.3,5.3-27.9,15.5v76.2h-36.2v-121h36.2v9.1
		c9.9-7.9,21.3-12.2,35-12.2C1108.5,305.8,1132,328.6,1132,364.1z"/>
	<g id="lINT7W_10_">
		<g>
			<polygon points="403.1,429.7 365.7,429.7 341.3,339.2 289,429.7 247.2,429.7 328,289.6 315,240.9 206,429.8 164.1,429.8
				302.3,190.4 339,190.4 355,249.9 392.8,249.9 367,294.8 			"/>
		</g>
	</g>
	<path d="M1278.2,249.7v180.1h-36.8V423c-9.4,6.1-21.3,9.9-34.8,9.9c-33.5,0-60.4-28.4-60.4-63.7c0-35,26.9-63.4,60.4-63.4
		c13.4,0,25.4,3.8,34.8,9.9v-66H1278.2z M1241.4,388v-37.4c-7.7-10.9-18.3-13.9-29-13.9c-18.6,0-31.4,14.9-31.4,32.4
		c0,17.8,12.9,32.7,31.4,32.7C1223.1,401.9,1233.8,398.9,1241.4,388z"/>
	<path d="M843.1,339.3c-8,1-26.8,1.9-37.8,17v73.5h-36.2V309h36.2v9.1c8.3-7.1,20.7-11.2,37.8-9.6"/>
	<g>
		<path d="M654.8,485.7v14.4H684v14.7h-29.2v24h-16.9v-68h50.8v14.9H654.8z"/>
		<path d="M763.9,504.8c0,19.8-15.5,35.3-36,35.3c-20.5,0-36-15.5-36-35.3s15.5-35.3,36-35.3C748.4,469.5,763.9,485,763.9,504.8z
			 M746.8,504.8c0-10.7-7.9-19.5-18.9-19.5c-11,0-18.9,8.8-18.9,19.5c0,10.7,7.9,19.5,18.9,19.5
			C738.9,524.3,746.8,515.5,746.8,504.8z"/>
		<path d="M834.8,507.1c0,21.1-12.2,33-31.7,33c-19.4,0-31.6-11.9-31.6-33v-36.3h17v36.6c0,10.4,5.7,16.9,14.6,16.9
			c8.9,0,14.7-6.5,14.7-16.9v-36.6h17V507.1z"/>
		<path d="M906.7,470.8v68h-13l-32.6-37.3v37.3h-16.9v-68h12.9l32.8,38.3v-38.3H906.7z"/>
		<path d="M981.2,504.6c0,20.2-15.3,34.2-36.7,34.2h-27.3v-68h27.3C965.9,470.8,981.2,484.7,981.2,504.6z M964.1,504.6
			c0-10.5-8.5-18.6-19.6-18.6h-10.4v37.6h10.4C955.6,523.6,964.1,515.4,964.1,504.6z"/>
		<path d="M1030.4,527.1h-28.8l-4.5,11.7h-18l28.9-68h16.2l28.8,68h-18L1030.4,527.1z M1024.9,513l-8.9-22.9l-8.9,22.9H1024.9z"/>
		<path d="M1102.9,485.9h-21.7v52.9h-16.8v-52.9h-21.7v-15.1h60.2V485.9z"/>
		<path d="M1126.5,470.8v68h-16.9v-68H1126.5z"/>
		<path d="M1207,504.8c0,19.8-15.5,35.3-36,35.3c-20.5,0-36-15.5-36-35.3s15.5-35.3,36-35.3C1191.5,469.5,1207,485,1207,504.8z
			 M1189.9,504.8c0-10.7-7.9-19.5-18.9-19.5c-11,0-18.9,8.8-18.9,19.5c0,10.7,7.9,19.5,18.9,19.5
			C1182,524.3,1189.9,515.5,1189.9,504.8z"/>
		<path d="M1278,470.8v68h-13l-32.6-37.3v37.3h-16.9v-68h12.9l32.8,38.3v-38.3H1278z"/>
	</g>
</g>
</svg>
